<svg width="100" height="100" viewBox="0 0 100 100" fill="none" xmlns="http://www.w3.org/2000/svg">
<rect width="100" height="100" rx="12" fill="white"/>
<path d="M19.5 42L17 36.5L47 23L48.5 40.5L24.5 51.5L21.5 42H19.5Z" fill="#3AAAC2" stroke="#3AAAC2"/>
<path d="M31 62L26.5 56L49.5 45.5L51 52.5L31 62Z" fill="#3AAAC2" stroke="#3AAAC2"/>
<path d="M76 71.5C57.2302 79.0406 48.9079 79.1554 34.5 66L52.5 56.5C58.1455 66.2177 63.6598 67.0345 75.5 68.5V67.6989C75.5 66.6989 82 66 82.5 66.6989C83 67.3977 83.5 68.5 83.5 69.5C83.5 70.5 78 72.5 77 72.5C76.1268 72.5 76 71.5 76 71.5Z" fill="#3AAAC2" stroke="#3AAAC2"/>
</svg>
